<mxfile host="app.diagrams.net" modified="2022-04-21T15:10:36.273Z" agent="5.0 (Macintosh)" etag="1tIEW7OeT92imlDoyzbI" version="17.4.6" type="github">
  <diagram id="pg4NWwXyoS1Mx2VAPYI4" name="Page-1">
    <mxGraphModel dx="1127" dy="683" grid="1" gridSize="10" guides="1" tooltips="1" connect="1" arrows="1" fold="1" page="1" pageScale="1" pageWidth="827" pageHeight="1169" math="0" shadow="0">
      <root>
        <mxCell id="0" />
        <mxCell id="1" parent="0" />
        <mxCell id="GN22W4hRL4hQmQUIznXv-16" style="edgeStyle=none;rounded=0;orthogonalLoop=1;jettySize=auto;html=1;exitX=1;exitY=0.5;exitDx=0;exitDy=0;entryX=0;entryY=0.5;entryDx=0;entryDy=0;fontFamily=Times New Roman;fontSize=25;endArrow=none;endFill=0;shadow=1;sketch=0;" edge="1" parent="1" source="GN22W4hRL4hQmQUIznXv-1" target="GN22W4hRL4hQmQUIznXv-15">
          <mxGeometry relative="1" as="geometry" />
        </mxCell>
        <mxCell id="GN22W4hRL4hQmQUIznXv-1" value="&lt;div style=&quot;font-size: 25px&quot;&gt;learner &lt;i&gt;1&lt;/i&gt;&lt;/div&gt;" style="rounded=1;whiteSpace=wrap;html=1;fillColor=#b1ddf0;strokeColor=#10739e;fontFamily=Times New Roman;fontSize=25;shadow=1;sketch=0;" vertex="1" parent="1">
          <mxGeometry x="260" y="400" width="120" height="60" as="geometry" />
        </mxCell>
        <mxCell id="GN22W4hRL4hQmQUIznXv-17" style="edgeStyle=none;rounded=0;orthogonalLoop=1;jettySize=auto;html=1;exitX=1;exitY=0.5;exitDx=0;exitDy=0;entryX=0;entryY=0.5;entryDx=0;entryDy=0;fontFamily=Times New Roman;fontSize=25;endArrow=none;endFill=0;shadow=1;sketch=0;" edge="1" parent="1" source="GN22W4hRL4hQmQUIznXv-2" target="GN22W4hRL4hQmQUIznXv-15">
          <mxGeometry relative="1" as="geometry" />
        </mxCell>
        <mxCell id="GN22W4hRL4hQmQUIznXv-2" value="&lt;div style=&quot;font-size: 25px&quot;&gt;learner &lt;i&gt;2&lt;/i&gt;&lt;/div&gt;" style="rounded=1;whiteSpace=wrap;html=1;fillColor=#b1ddf0;strokeColor=#10739e;fontFamily=Times New Roman;fontSize=25;shadow=1;sketch=0;" vertex="1" parent="1">
          <mxGeometry x="260" y="490" width="120" height="60" as="geometry" />
        </mxCell>
        <mxCell id="GN22W4hRL4hQmQUIznXv-18" style="edgeStyle=none;rounded=0;orthogonalLoop=1;jettySize=auto;html=1;exitX=1;exitY=0.5;exitDx=0;exitDy=0;entryX=0;entryY=0.5;entryDx=0;entryDy=0;fontFamily=Times New Roman;fontSize=25;endArrow=none;endFill=0;shadow=1;sketch=0;" edge="1" parent="1" source="GN22W4hRL4hQmQUIznXv-3" target="GN22W4hRL4hQmQUIznXv-15">
          <mxGeometry relative="1" as="geometry" />
        </mxCell>
        <mxCell id="GN22W4hRL4hQmQUIznXv-3" value="&lt;div style=&quot;font-size: 25px&quot;&gt;learner &lt;i&gt;n&lt;/i&gt;&lt;/div&gt;" style="rounded=1;whiteSpace=wrap;html=1;fillColor=#b1ddf0;strokeColor=#10739e;fontFamily=Times New Roman;fontSize=25;shadow=1;sketch=0;" vertex="1" parent="1">
          <mxGeometry x="260" y="590" width="120" height="60" as="geometry" />
        </mxCell>
        <mxCell id="GN22W4hRL4hQmQUIznXv-4" value="..." style="text;html=1;align=center;verticalAlign=middle;resizable=0;points=[];autosize=1;fontSize=25;fontFamily=Times New Roman;shadow=1;sketch=0;" vertex="1" parent="1">
          <mxGeometry x="305" y="540" width="30" height="40" as="geometry" />
        </mxCell>
        <mxCell id="GN22W4hRL4hQmQUIznXv-8" style="edgeStyle=none;rounded=0;orthogonalLoop=1;jettySize=auto;html=1;exitX=1;exitY=0.5;exitDx=0;exitDy=0;exitPerimeter=0;entryX=0;entryY=0.5;entryDx=0;entryDy=0;fontFamily=Times New Roman;fontSize=25;shadow=1;sketch=0;" edge="1" parent="1" source="GN22W4hRL4hQmQUIznXv-5" target="GN22W4hRL4hQmQUIznXv-3">
          <mxGeometry relative="1" as="geometry" />
        </mxCell>
        <mxCell id="GN22W4hRL4hQmQUIznXv-9" style="edgeStyle=none;rounded=0;orthogonalLoop=1;jettySize=auto;html=1;exitX=1;exitY=0.5;exitDx=0;exitDy=0;exitPerimeter=0;fontFamily=Times New Roman;fontSize=25;shadow=1;sketch=0;" edge="1" parent="1" source="GN22W4hRL4hQmQUIznXv-5" target="GN22W4hRL4hQmQUIznXv-2">
          <mxGeometry relative="1" as="geometry" />
        </mxCell>
        <mxCell id="GN22W4hRL4hQmQUIznXv-10" style="edgeStyle=none;rounded=0;orthogonalLoop=1;jettySize=auto;html=1;exitX=1;exitY=0.5;exitDx=0;exitDy=0;exitPerimeter=0;entryX=0;entryY=0.5;entryDx=0;entryDy=0;fontFamily=Times New Roman;fontSize=25;shadow=1;sketch=0;" edge="1" parent="1" source="GN22W4hRL4hQmQUIznXv-5" target="GN22W4hRL4hQmQUIznXv-1">
          <mxGeometry relative="1" as="geometry" />
        </mxCell>
        <mxCell id="GN22W4hRL4hQmQUIznXv-5" value="Data" style="shape=cylinder3;whiteSpace=wrap;html=1;boundedLbl=1;backgroundOutline=1;size=15;fontFamily=Times New Roman;fontSize=25;fillColor=#b0e3e6;strokeColor=#0e8088;shadow=1;sketch=0;" vertex="1" parent="1">
          <mxGeometry x="80" y="480" width="90" height="80" as="geometry" />
        </mxCell>
        <mxCell id="GN22W4hRL4hQmQUIznXv-13" value="Combination" style="rounded=1;whiteSpace=wrap;html=1;fillColor=#bac8d3;strokeColor=#23445d;fontFamily=Times New Roman;fontSize=25;shadow=1;sketch=0;" vertex="1" parent="1">
          <mxGeometry x="470" y="470" width="150" height="60" as="geometry" />
        </mxCell>
        <mxCell id="GN22W4hRL4hQmQUIznXv-14" value="Combination" style="rounded=1;whiteSpace=wrap;html=1;fillColor=#bac8d3;strokeColor=#23445d;fontFamily=Times New Roman;fontSize=25;shadow=1;sketch=0;" vertex="1" parent="1">
          <mxGeometry x="480" y="480" width="150" height="60" as="geometry" />
        </mxCell>
        <mxCell id="GN22W4hRL4hQmQUIznXv-23" style="edgeStyle=none;rounded=0;orthogonalLoop=1;jettySize=auto;html=1;exitX=1;exitY=0.5;exitDx=0;exitDy=0;fontFamily=Times New Roman;fontSize=25;startArrow=none;startFill=0;endArrow=classic;endFill=1;shadow=1;fillColor=#bac8d3;strokeColor=#23445d;sketch=0;" edge="1" parent="1" source="GN22W4hRL4hQmQUIznXv-15">
          <mxGeometry relative="1" as="geometry">
            <mxPoint x="690" y="520" as="targetPoint" />
          </mxGeometry>
        </mxCell>
        <mxCell id="GN22W4hRL4hQmQUIznXv-15" value="Combination" style="rounded=1;whiteSpace=wrap;html=1;fillColor=#bac8d3;strokeColor=#23445d;fontFamily=Times New Roman;fontSize=25;shadow=1;sketch=0;" vertex="1" parent="1">
          <mxGeometry x="490" y="490" width="150" height="60" as="geometry" />
        </mxCell>
        <mxCell id="GN22W4hRL4hQmQUIznXv-24" value="y" style="text;html=1;align=center;verticalAlign=middle;resizable=0;points=[];autosize=1;strokeColor=#666666;fillColor=#f5f5f5;fontSize=25;fontFamily=Times New Roman;fontColor=#333333;shadow=1;sketch=0;" vertex="1" parent="1">
          <mxGeometry x="705" y="500" width="30" height="40" as="geometry" />
        </mxCell>
        <mxCell id="GN22W4hRL4hQmQUIznXv-25" style="edgeStyle=none;rounded=0;orthogonalLoop=1;jettySize=auto;html=1;exitX=0.25;exitY=0;exitDx=0;exitDy=0;fontFamily=Times New Roman;fontSize=25;startArrow=none;startFill=0;endArrow=classic;endFill=1;shadow=1;fillColor=#b1ddf0;strokeColor=#10739e;sketch=0;" edge="1" parent="1" source="GN22W4hRL4hQmQUIznXv-1" target="GN22W4hRL4hQmQUIznXv-1">
          <mxGeometry relative="1" as="geometry" />
        </mxCell>
      </root>
    </mxGraphModel>
  </diagram>
</mxfile>
